<svg width="1200" height="800" viewBox="0 0 1200 800" fill="none" xmlns="http://www.w3.org/2000/svg">
  <rect width="1200" height="800" fill="#F3F8FF"/>
  <circle cx="1080" cy="120" r="180" fill="#DDEBFF"/>
  <circle cx="120" cy="690" r="140" fill="#D7F4F4"/>
  <rect x="140" y="170" width="920" height="500" rx="26" fill="white" stroke="#CFE0F6" stroke-width="4"/>
  <rect x="190" y="220" width="420" height="320" rx="20" fill="#EEF4FF"/>
  <rect x="640" y="220" width="360" height="24" rx="12" fill="#0052CC" fill-opacity="0.2"/>
  <rect x="640" y="270" width="280" height="20" rx="10" fill="#0052CC" fill-opacity="0.12"/>
  <rect x="640" y="308" width="320" height="20" rx="10" fill="#0052CC" fill-opacity="0.12"/>
  <rect x="640" y="346" width="260" height="20" rx="10" fill="#0052CC" fill-opacity="0.12"/>
  <rect x="640" y="406" width="140" height="42" rx="12" fill="#00B4B4"/>
  <circle cx="300" cy="360" r="58" fill="#FCC9A9"/>
  <rect x="240" y="420" width="120" height="96" rx="24" fill="#0052CC"/>
  <circle cx="430" cy="360" r="58" fill="#F6BD93"/>
  <rect x="370" y="420" width="120" height="96" rx="24" fill="#00B4B4"/>
  <rect x="328" y="470" width="74" height="20" rx="10" fill="#0D1F3C"/>
  <rect x="330" y="535" width="540" height="70" rx="16" fill="#F7FBFF" stroke="#D9E6F5" stroke-width="3"/>
  <circle cx="380" cy="570" r="16" fill="#0052CC"/>
  <rect x="410" y="560" width="220" height="20" rx="10" fill="#0D1F3C" fill-opacity="0.2"/>
</svg>
