<svg width="1200" height="800" viewBox="0 0 1200 800" fill="none" xmlns="http://www.w3.org/2000/svg">
  <rect width="1200" height="800" fill="#F4FAFF"/>
  <rect x="130" y="120" width="940" height="560" rx="30" fill="white" stroke="#D7E6F8" stroke-width="4"/>
  <rect x="180" y="180" width="420" height="440" rx="22" fill="#EEF4FF"/>
  <rect x="230" y="240" width="320" height="26" rx="13" fill="#0052CC" fill-opacity="0.2"/>
  <rect x="230" y="286" width="280" height="18" rx="9" fill="#0052CC" fill-opacity="0.12"/>
  <rect x="230" y="318" width="240" height="18" rx="9" fill="#0052CC" fill-opacity="0.12"/>
  <rect x="230" y="362" width="320" height="170" rx="14" fill="white" stroke="#CFE0F6" stroke-width="3"/>
  <path d="M255 392L390 478L525 392" stroke="#00B4B4" stroke-width="8" stroke-linecap="round" stroke-linejoin="round"/>
  <circle cx="780" cy="320" r="62" fill="#FCC9A9"/>
  <rect x="716" y="382" width="128" height="72" rx="22" fill="#0052CC"/>
  <rect x="670" y="490" width="250" height="130" rx="18" fill="#F7FBFF" stroke="#D7E6F8" stroke-width="3"/>
  <rect x="710" y="528" width="170" height="18" rx="9" fill="#0D1F3C" fill-opacity="0.16"/>
  <rect x="710" y="557" width="130" height="14" rx="7" fill="#0D1F3C" fill-opacity="0.12"/>
  <rect x="710" y="582" width="150" height="14" rx="7" fill="#0D1F3C" fill-opacity="0.12"/>
  <circle cx="970" cy="205" r="70" fill="#D9F4F4"/>
  <path d="M940 205H1000" stroke="#00B4B4" stroke-width="8" stroke-linecap="round"/>
  <path d="M970 175V235" stroke="#00B4B4" stroke-width="8" stroke-linecap="round"/>
</svg>
