<svg xmlns="http://www.w3.org/2000/svg" viewBox="0 0 960 720" role="img" aria-labelledby="title desc">
  <title id="title">Insurance team illustration</title>
  <desc id="desc">Cartoon style people with a shield and policy card representing insurance protection.</desc>
  <defs>
    <linearGradient id="bg" x1="0" y1="0" x2="1" y2="1">
      <stop offset="0%" stop-color="#eef4ff"/>
      <stop offset="100%" stop-color="#dff6f6"/>
    </linearGradient>
    <linearGradient id="shield" x1="0" y1="0" x2="1" y2="1">
      <stop offset="0%" stop-color="#0052cc"/>
      <stop offset="100%" stop-color="#00b4b4"/>
    </linearGradient>
  </defs>

  <rect width="960" height="720" rx="24" fill="url(#bg)"/>

  <circle cx="160" cy="120" r="70" fill="#cfe2ff" opacity="0.6"/>
  <circle cx="860" cy="180" r="96" fill="#c6efef" opacity="0.55"/>
  <circle cx="760" cy="560" r="86" fill="#e2ecff" opacity="0.6"/>

  <rect x="92" y="470" width="776" height="28" rx="14" fill="#d7e3f4"/>

  <g transform="translate(560 146)">
    <path d="M110 0c66 0 120 53 120 120v44c0 101-73 192-171 214C-39 356-112 265-112 164v-44C-112 53-58 0 8 0h102z" fill="url(#shield)"/>
    <path d="M62 119l40 40 76-74" fill="none" stroke="#fff" stroke-width="24" stroke-linecap="round" stroke-linejoin="round"/>
  </g>

  <g transform="translate(176 250)">
    <rect x="242" y="12" width="224" height="286" rx="18" fill="#ffffff" stroke="#bfd0e6" stroke-width="3"/>
    <rect x="270" y="48" width="168" height="14" rx="7" fill="#8fb4df"/>
    <rect x="270" y="80" width="130" height="12" rx="6" fill="#b8cae4"/>
    <rect x="270" y="124" width="158" height="12" rx="6" fill="#b8cae4"/>
    <rect x="270" y="154" width="142" height="12" rx="6" fill="#b8cae4"/>
    <rect x="270" y="184" width="168" height="12" rx="6" fill="#b8cae4"/>
    <circle cx="432" cy="246" r="24" fill="#e8f5f5"/>
    <path d="M422 246l8 8 14-14" fill="none" stroke="#00b4b4" stroke-width="6" stroke-linecap="round" stroke-linejoin="round"/>
  </g>

  <g transform="translate(126 256)">
    <circle cx="84" cy="88" r="40" fill="#ffd8b8"/>
    <path d="M50 86c0-20 16-36 36-36s36 16 36 36v8H50z" fill="#153c78"/>
    <rect x="34" y="132" width="102" height="148" rx="28" fill="#0052cc"/>
    <rect x="72" y="132" width="26" height="64" rx="13" fill="#00b4b4"/>
    <rect x="8" y="190" width="44" height="102" rx="20" fill="#153c78"/>
    <rect x="118" y="190" width="44" height="102" rx="20" fill="#153c78"/>
    <rect x="36" y="278" width="34" height="102" rx="14" fill="#102c59"/>
    <rect x="102" y="278" width="34" height="102" rx="14" fill="#102c59"/>
  </g>

  <g transform="translate(744 276)">
    <circle cx="62" cy="72" r="34" fill="#ffd8b8"/>
    <path d="M34 71c0-17 13-31 30-31s30 14 30 31v7H34z" fill="#1f4a88"/>
    <rect x="20" y="106" width="84" height="124" rx="24" fill="#00b4b4"/>
    <rect x="48" y="106" width="28" height="52" rx="12" fill="#ffffff" opacity="0.85"/>
    <rect x="2" y="156" width="32" height="86" rx="15" fill="#1f4a88"/>
    <rect x="94" y="156" width="32" height="86" rx="15" fill="#1f4a88"/>
    <rect x="20" y="224" width="28" height="88" rx="12" fill="#123468"/>
    <rect x="76" y="224" width="28" height="88" rx="12" fill="#123468"/>
  </g>
</svg>
