<svg width="1200" height="800" viewBox="0 0 1200 800" fill="none" xmlns="http://www.w3.org/2000/svg">
  <rect width="1200" height="800" fill="#F2F8FF"/>
  <rect x="120" y="120" width="960" height="560" rx="28" fill="white" stroke="#D6E5F7" stroke-width="4"/>
  <rect x="170" y="170" width="860" height="160" rx="20" fill="#EAF3FF"/>
  <rect x="220" y="225" width="260" height="28" rx="14" fill="#0052CC" fill-opacity="0.2"/>
  <rect x="220" y="268" width="180" height="20" rx="10" fill="#0052CC" fill-opacity="0.12"/>
  <rect x="650" y="200" width="320" height="90" rx="18" fill="white" stroke="#CFE0F6" stroke-width="3"/>
  <circle cx="720" cy="245" r="22" fill="#0052CC" fill-opacity="0.2"/>
  <rect x="760" y="230" width="160" height="14" rx="7" fill="#0D1F3C" fill-opacity="0.18"/>
  <rect x="760" y="254" width="110" height="12" rx="6" fill="#0D1F3C" fill-opacity="0.12"/>
  <circle cx="430" cy="470" r="72" fill="#FCC9A9"/>
  <circle cx="610" cy="470" r="72" fill="#F6BD93"/>
  <rect x="350" y="540" width="160" height="88" rx="28" fill="#0052CC"/>
  <rect x="530" y="540" width="160" height="88" rx="28" fill="#00B4B4"/>
  <path d="M512 494C548 530 568 530 604 494" stroke="#0D1F3C" stroke-width="22" stroke-linecap="round"/>
  <rect x="740" y="400" width="230" height="220" rx="20" fill="#F7FBFF" stroke="#D8E7F8" stroke-width="3"/>
  <rect x="780" y="446" width="150" height="16" rx="8" fill="#0D1F3C" fill-opacity="0.2"/>
  <rect x="780" y="474" width="120" height="14" rx="7" fill="#0D1F3C" fill-opacity="0.14"/>
  <rect x="780" y="505" width="130" height="14" rx="7" fill="#0D1F3C" fill-opacity="0.14"/>
</svg>
