<svg width="1200" height="800" viewBox="0 0 1200 800" fill="none" xmlns="http://www.w3.org/2000/svg">
  <rect width="1200" height="800" fill="#F4FAFF"/>
  <rect x="120" y="120" width="960" height="560" rx="30" fill="white" stroke="#D8E7F8" stroke-width="4"/>
  <rect x="180" y="180" width="260" height="440" rx="20" fill="#EEF4FF"/>
  <rect x="220" y="220" width="180" height="44" rx="12" fill="#0052CC" fill-opacity="0.2"/>
  <rect x="220" y="290" width="180" height="36" rx="10" fill="#0052CC" fill-opacity="0.12"/>
  <rect x="220" y="344" width="180" height="36" rx="10" fill="#0052CC" fill-opacity="0.12"/>
  <rect x="220" y="398" width="180" height="36" rx="10" fill="#0052CC" fill-opacity="0.12"/>
  <rect x="220" y="452" width="180" height="36" rx="10" fill="#0052CC" fill-opacity="0.12"/>
  <rect x="480" y="180" width="540" height="250" rx="22" fill="#E9F5FF"/>
  <circle cx="620" cy="300" r="58" fill="#FCC9A9"/>
  <rect x="560" y="360" width="122" height="64" rx="20" fill="#0052CC"/>
  <circle cx="760" cy="300" r="58" fill="#F6BD93"/>
  <rect x="700" y="360" width="122" height="64" rx="20" fill="#00B4B4"/>
  <rect x="860" y="215" width="120" height="180" rx="16" fill="white" stroke="#CFE0F6" stroke-width="3"/>
  <rect x="885" y="245" width="70" height="12" rx="6" fill="#0052CC" fill-opacity="0.22"/>
  <rect x="885" y="272" width="70" height="12" rx="6" fill="#0052CC" fill-opacity="0.15"/>
  <rect x="885" y="299" width="70" height="12" rx="6" fill="#0052CC" fill-opacity="0.15"/>
  <rect x="480" y="460" width="540" height="160" rx="20" fill="#F7FBFF" stroke="#D8E7F8" stroke-width="3"/>
  <rect x="520" y="506" width="220" height="22" rx="11" fill="#0D1F3C" fill-opacity="0.15"/>
  <rect x="520" y="544" width="340" height="18" rx="9" fill="#0D1F3C" fill-opacity="0.12"/>
  <rect x="520" y="573" width="180" height="16" rx="8" fill="#0D1F3C" fill-opacity="0.1"/>
</svg>
